<svg xmlns="http://www.w3.org/2000/svg" version="1.1" xmlns:xlink="http://www.w3.org/1999/xlink" xmlns:svgjs="http://svgjs.dev/svgjs" viewBox="0 0 800 800"><circle r="8" cx="191" cy="361" fill="hsl(90, 75%, 70%)" opacity="0.31"></circle><circle r="8.5" cx="128" cy="538" fill="hsl(113, 75%, 70%)" opacity="0.41"></circle><circle r="8.5" cx="632" cy="50" fill="hsl(122, 75%, 70%)" opacity="0.74"></circle><circle r="5" cx="546" cy="633" fill="hsl(95, 75%, 70%)" opacity="0.96"></circle><circle r="9" cx="725" cy="616" fill="hsl(118, 75%, 70%)" opacity="0.79"></circle><circle r="4" cx="351" cy="225" fill="hsl(75, 75%, 70%)" opacity="0.17"></circle><circle r="4" cx="614" cy="406" fill="hsl(65, 75%, 70%)" opacity="0.68"></circle><circle r="7" cx="545" cy="320" fill="hsl(95, 75%, 70%)" opacity="0.22"></circle><circle r="11" cx="17" cy="226" fill="hsl(163, 75%, 70%)" opacity="0.48"></circle><circle r="7.5" cx="759" cy="221" fill="hsl(167, 75%, 70%)" opacity="0.61"></circle><circle r="9.5" cx="619" cy="587" fill="hsl(65, 75%, 70%)" opacity="0.41"></circle><circle r="6.5" cx="281" cy="500" fill="hsl(70, 75%, 70%)" opacity="0.90"></circle><circle r="4" cx="243" cy="465" fill="hsl(77, 75%, 70%)" opacity="0.60"></circle><circle r="6" cx="178" cy="103" fill="hsl(81, 75%, 70%)" opacity="0.20"></circle><circle r="13" cx="24" cy="467" fill="hsl(163, 75%, 70%)" opacity="0.84"></circle><circle r="8.5" cx="678" cy="64" fill="hsl(122, 75%, 70%)" opacity="0.77"></circle><circle r="7.5" cx="49" cy="337" fill="hsl(154, 75%, 70%)" opacity="0.58"></circle><circle r="5.5" cx="598" cy="542" fill="hsl(71, 75%, 70%)" opacity="0.15"></circle><circle r="9" cx="675" cy="456" fill="hsl(82, 75%, 70%)" opacity="0.76"></circle><circle r="8.5" cx="713" cy="480" fill="hsl(118, 75%, 70%)" opacity="0.79"></circle><circle r="5.5" cx="376" cy="350" fill="hsl(84, 75%, 70%)" opacity="0.67"></circle><circle r="9.5" cx="74" cy="362" fill="hsl(142, 75%, 70%)" opacity="0.75"></circle><circle r="10" cx="23" cy="651" fill="hsl(163, 75%, 70%)" opacity="0.19"></circle><circle r="5" cx="415" cy="126" fill="hsl(168, 75%, 70%)" opacity="0.68"></circle><circle r="15" cx="46" cy="767" fill="hsl(154, 75%, 70%)" opacity="0.98"></circle><circle r="4" cx="643" cy="396" fill="hsl(65, 75%, 70%)" opacity="0.27"></circle><circle r="6" cx="664" cy="738" fill="hsl(74, 75%, 70%)" opacity="0.45"></circle><circle r="5.5" cx="641" cy="425" fill="hsl(65, 75%, 70%)" opacity="0.80"></circle><circle r="5.5" cx="352" cy="307" fill="hsl(75, 75%, 70%)" opacity="0.64"></circle><circle r="8" cx="14" cy="340" fill="hsl(163, 75%, 70%)" opacity="0.42"></circle><circle r="6.5" cx="420" cy="200" fill="hsl(100, 75%, 70%)" opacity="0.74"></circle><circle r="10" cx="94" cy="404" fill="hsl(130, 75%, 70%)" opacity="0.20"></circle><circle r="6.5" cx="568" cy="467" fill="hsl(82, 75%, 70%)" opacity="0.20"></circle><circle r="5" cx="609" cy="486" fill="hsl(67, 75%, 70%)" opacity="0.61"></circle><circle r="9.5" cx="266" cy="121" fill="hsl(117, 75%, 70%)" opacity="0.11"></circle><circle r="6.5" cx="479" cy="335" fill="hsl(114, 75%, 70%)" opacity="0.96"></circle><circle r="5.5" cx="522" cy="740" fill="hsl(106, 75%, 70%)" opacity="0.76"></circle><circle r="5" cx="404" cy="281" fill="hsl(95, 75%, 70%)" opacity="0.31"></circle><circle r="10.5" cx="383" cy="53" fill="hsl(284, 75%, 70%)" opacity="0.96"></circle><circle r="11.5" cx="509" cy="128" fill="hsl(160, 75%, 70%)" opacity="0.25"></circle><circle r="8.5" cx="452" cy="207" fill="hsl(112, 75%, 70%)" opacity="1.00"></circle><circle r="6.5" cx="216" cy="211" fill="hsl(83, 75%, 70%)" opacity="0.71"></circle><circle r="6.5" cx="618" cy="684" fill="hsl(65, 75%, 70%)" opacity="0.50"></circle><circle r="7" cx="720" cy="221" fill="hsl(118, 75%, 70%)" opacity="0.72"></circle><circle r="8" cx="144" cy="634" fill="hsl(108, 75%, 70%)" opacity="0.16"></circle><circle r="10" cx="247" cy="78" fill="hsl(136, 75%, 70%)" opacity="0.64"></circle><circle r="8" cx="148" cy="576" fill="hsl(108, 75%, 70%)" opacity="0.10"></circle><circle r="12" cx="443" cy="18" fill="hsl(293, 75%, 70%)" opacity="0.77"></circle><circle r="10.5" cx="459" cy="552" fill="hsl(112, 75%, 70%)" opacity="0.59"></circle><circle r="7" cx="522" cy="707" fill="hsl(106, 75%, 70%)" opacity="0.42"></circle><circle r="7" cx="499" cy="373" fill="hsl(113, 75%, 70%)" opacity="0.88"></circle><circle r="7.5" cx="226" cy="572" fill="hsl(80, 75%, 70%)" opacity="0.76"></circle><circle r="7.5" cx="212" cy="525" fill="hsl(87, 75%, 70%)" opacity="0.59"></circle><circle r="9" cx="286" cy="52" fill="hsl(212, 75%, 70%)" opacity="0.52"></circle><circle r="3.5" cx="117" cy="11" fill="hsl(68, 75%, 70%)" opacity="0.55"></circle><circle r="9.5" cx="127" cy="776" fill="hsl(113, 75%, 70%)" opacity="0.48"></circle><circle r="11" cx="734" cy="134" fill="hsl(140, 75%, 70%)" opacity="0.95"></circle><circle r="4.5" cx="582" cy="500" fill="hsl(76, 75%, 70%)" opacity="0.76"></circle><circle r="9" cx="710" cy="412" fill="hsl(104, 75%, 70%)" opacity="0.63"></circle><circle r="9" cx="783" cy="37" fill="hsl(211, 75%, 70%)" opacity="0.25"></circle><circle r="7" cx="98" cy="64" fill="hsl(88, 75%, 70%)" opacity="0.67"></circle><circle r="4.5" cx="586" cy="361" fill="hsl(76, 75%, 70%)" opacity="0.42"></circle><circle r="5.5" cx="558" cy="786" fill="hsl(89, 75%, 70%)" opacity="0.40"></circle><circle r="4" cx="395" cy="400" fill="hsl(89, 75%, 70%)" opacity="0.92"></circle><circle r="8" cx="96" cy="113" fill="hsl(104, 75%, 70%)" opacity="0.40"></circle><circle r="11" cx="758" cy="717" fill="hsl(167, 75%, 70%)" opacity="0.69"></circle><circle r="8" cx="758" cy="629" fill="hsl(167, 75%, 70%)" opacity="0.83"></circle><circle r="6.5" cx="153" cy="671" fill="hsl(103, 75%, 70%)" opacity="0.95"></circle><circle r="8.5" cx="758" cy="79" fill="hsl(174, 75%, 70%)" opacity="0.62"></circle><circle r="6" cx="170" cy="271" fill="hsl(98, 75%, 70%)" opacity="0.58"></circle><circle r="11.5" cx="753" cy="565" fill="hsl(167, 75%, 70%)" opacity="0.39"></circle><circle r="7.5" cx="275" cy="603" fill="hsl(70, 75%, 70%)" opacity="0.30"></circle><circle r="7.5" cx="42" cy="687" fill="hsl(154, 75%, 70%)" opacity="0.55"></circle><circle r="8" cx="296" cy="149" fill="hsl(101, 75%, 70%)" opacity="0.31"></circle><circle r="5" cx="641" cy="287" fill="hsl(65, 75%, 70%)" opacity="0.93"></circle><circle r="4.5" cx="172" cy="49" fill="hsl(81, 75%, 70%)" opacity="0.30"></circle><circle r="6.5" cx="765" cy="514" fill="hsl(185, 75%, 70%)" opacity="0.82"></circle><circle r="9" cx="753" cy="286" fill="hsl(167, 75%, 70%)" opacity="0.57"></circle><circle r="8.5" cx="305" cy="765" fill="hsl(69, 75%, 70%)" opacity="0.19"></circle><circle r="9" cx="770" cy="777" fill="hsl(185, 75%, 70%)" opacity="0.86"></circle><circle r="7" cx="669" cy="256" fill="hsl(74, 75%, 70%)" opacity="0.13"></circle><circle r="9.5" cx="455" cy="502" fill="hsl(112, 75%, 70%)" opacity="0.33"></circle><circle r="8" cx="403" cy="467" fill="hsl(95, 75%, 70%)" opacity="0.14"></circle><circle r="9" cx="471" cy="670" fill="hsl(114, 75%, 70%)" opacity="0.34"></circle><circle r="6.5" cx="410" cy="104" fill="hsl(206, 75%, 70%)" opacity="0.83"></circle><circle r="11.5" cx="460" cy="121" fill="hsl(191, 75%, 70%)" opacity="0.10"></circle><circle r="7.5" cx="72" cy="486" fill="hsl(142, 75%, 70%)" opacity="0.11"></circle><circle r="6.5" cx="312" cy="212" fill="hsl(69, 75%, 70%)" opacity="0.66"></circle><circle r="5" cx="365" cy="395" fill="hsl(79, 75%, 70%)" opacity="0.60"></circle><circle r="10.5" cx="538" cy="182" fill="hsl(100, 75%, 70%)" opacity="0.57"></circle><circle r="7" cx="669" cy="303" fill="hsl(74, 75%, 70%)" opacity="0.94"></circle><circle r="15.5" cx="509" cy="28" fill="hsl(231, 75%, 70%)" opacity="0.48"></circle><circle r="4.5" cx="617" cy="369" fill="hsl(65, 75%, 70%)" opacity="0.72"></circle><circle r="6.5" cx="187" cy="495" fill="hsl(94, 75%, 70%)" opacity="0.86"></circle><circle r="6.5" cx="354" cy="748" fill="hsl(75, 75%, 70%)" opacity="0.83"></circle><circle r="4.5" cx="598" cy="663" fill="hsl(71, 75%, 70%)" opacity="0.55"></circle><circle r="7.5" cx="517" cy="291" fill="hsl(106, 75%, 70%)" opacity="0.81"></circle><circle r="5.5" cx="564" cy="571" fill="hsl(82, 75%, 70%)" opacity="0.55"></circle><circle r="8" cx="50" cy="576" fill="hsl(148, 75%, 70%)" opacity="0.73"></circle><circle r="9" cx="112" cy="249" fill="hsl(124, 75%, 70%)" opacity="0.72"></circle><circle r="8.5" cx="414" cy="576" fill="hsl(100, 75%, 70%)" opacity="0.22"></circle><circle r="8.5" cx="765" cy="415" fill="hsl(185, 75%, 70%)" opacity="0.64"></circle><circle r="11.5" cx="383" cy="17" fill="hsl(325, 75%, 70%)" opacity="0.67"></circle><circle r="8.5" cx="430" cy="346" fill="hsl(105, 75%, 70%)" opacity="0.59"></circle><circle r="6" cx="339" cy="679" fill="hsl(72, 75%, 70%)" opacity="0.72"></circle><circle r="6.5" cx="718" cy="253" fill="hsl(118, 75%, 70%)" opacity="0.71"></circle><circle r="7.5" cx="455" cy="455" fill="hsl(112, 75%, 70%)" opacity="0.52"></circle><circle r="4.5" cx="126" cy="87" fill="hsl(76, 75%, 70%)" opacity="0.75"></circle><circle r="9" cx="725" cy="182" fill="hsl(119, 75%, 70%)" opacity="0.24"></circle><circle r="8.5" cx="784" cy="591" fill="hsl(203, 75%, 70%)" opacity="0.47"></circle><circle r="10" cx="22" cy="527" fill="hsl(163, 75%, 70%)" opacity="0.21"></circle><circle r="9" cx="611" cy="108" fill="hsl(108, 75%, 70%)" opacity="0.75"></circle><circle r="5.5" cx="387" cy="322" fill="hsl(84, 75%, 70%)" opacity="0.32"></circle><circle r="9" cx="199" cy="308" fill="hsl(90, 75%, 70%)" opacity="0.95"></circle><circle r="11" cx="439" cy="772" fill="hsl(109, 75%, 70%)" opacity="0.20"></circle><circle r="7" cx="257" cy="665" fill="hsl(74, 75%, 70%)" opacity="0.44"></circle><circle r="7.5" cx="330" cy="170" fill="hsl(85, 75%, 70%)" opacity="0.27"></circle><circle r="7" cx="658" cy="182" fill="hsl(70, 75%, 70%)" opacity="0.15"></circle><circle r="7" cx="183" cy="243" fill="hsl(94, 75%, 70%)" opacity="0.30"></circle><circle r="8" cx="493" cy="454" fill="hsl(113, 75%, 70%)" opacity="0.71"></circle><circle r="5.5" cx="607" cy="299" fill="hsl(67, 75%, 70%)" opacity="0.54"></circle><circle r="10" cx="732" cy="324" fill="hsl(134, 75%, 70%)" opacity="0.71"></circle><circle r="6" cx="521" cy="531" fill="hsl(106, 75%, 70%)" opacity="0.73"></circle><circle r="5.5" cx="673" cy="519" fill="hsl(74, 75%, 70%)" opacity="0.95"></circle><circle r="5.5" cx="655" cy="348" fill="hsl(68, 75%, 70%)" opacity="0.81"></circle><circle r="4.5" cx="373" cy="163" fill="hsl(97, 75%, 70%)" opacity="0.68"></circle><circle r="7.5" cx="735" cy="523" fill="hsl(134, 75%, 70%)" opacity="0.76"></circle><circle r="9" cx="176" cy="199" fill="hsl(94, 75%, 70%)" opacity="0.26"></circle><circle r="11.5" cx="88" cy="656" fill="hsl(130, 75%, 70%)" opacity="0.71"></circle><circle r="8" cx="47" cy="109" fill="hsl(141, 75%, 70%)" opacity="0.49"></circle><circle r="5.5" cx="148" cy="27" fill="hsl(70, 75%, 70%)" opacity="0.65"></circle><circle r="6.5" cx="358" cy="529" fill="hsl(75, 75%, 70%)" opacity="0.16"></circle><circle r="6.5" cx="329" cy="713" fill="hsl(70, 75%, 70%)" opacity="0.49"></circle><circle r="13" cx="575" cy="46" fill="hsl(163, 75%, 70%)" opacity="0.69"></circle><circle r="6.5" cx="461" cy="729" fill="hsl(112, 75%, 70%)" opacity="0.75"></circle><circle r="8" cx="528" cy="243" fill="hsl(101, 75%, 70%)" opacity="0.97"></circle><circle r="6" cx="364" cy="113" fill="hsl(170, 75%, 70%)" opacity="0.27"></circle><circle r="7.5" cx="543" cy="385" fill="hsl(95, 75%, 70%)" opacity="0.69"></circle><circle r="3.5" cx="75" cy="10" fill="hsl(88, 75%, 70%)" opacity="0.52"></circle><circle r="8" cx="692" cy="343" fill="hsl(92, 75%, 70%)" opacity="0.35"></circle><circle r="7.5" cx="431" cy="425" fill="hsl(105, 75%, 70%)" opacity="0.72"></circle><circle r="5.5" cx="184" cy="554" fill="hsl(94, 75%, 70%)" opacity="0.79"></circle><circle r="8.5" cx="36" cy="296" fill="hsl(159, 75%, 70%)" opacity="0.72"></circle><circle r="7" cx="164" cy="145" fill="hsl(84, 75%, 70%)" opacity="0.22"></circle><circle r="6.5" cx="517" cy="343" fill="hsl(106, 75%, 70%)" opacity="0.35"></circle><circle r="5" cx="487" cy="788" fill="hsl(114, 75%, 70%)" opacity="0.65"></circle><circle r="6.5" cx="288" cy="326" fill="hsl(69, 75%, 70%)" opacity="0.73"></circle><circle r="7" cx="754" cy="365" fill="hsl(167, 75%, 70%)" opacity="0.43"></circle><circle r="7.5" cx="785" cy="233" fill="hsl(203, 75%, 70%)" opacity="0.49"></circle><circle r="7" cx="230" cy="253" fill="hsl(80, 75%, 70%)" opacity="0.60"></circle><circle r="7.5" cx="338" cy="363" fill="hsl(72, 75%, 70%)" opacity="0.13"></circle><circle r="14" cx="324" cy="100" fill="hsl(189, 75%, 70%)" opacity="0.52"></circle><circle r="5.5" cx="225" cy="487" fill="hsl(80, 75%, 70%)" opacity="0.27"></circle><circle r="6" cx="605" cy="188" fill="hsl(67, 75%, 70%)" opacity="0.76"></circle><circle r="5.5" cx="364" cy="202" fill="hsl(79, 75%, 70%)" opacity="0.44"></circle><circle r="7.5" cx="61" cy="76" fill="hsl(123, 75%, 70%)" opacity="0.97"></circle><circle r="9" cx="783" cy="103" fill="hsl(198, 75%, 70%)" opacity="0.60"></circle><circle r="5.5" cx="343" cy="268" fill="hsl(72, 75%, 70%)" opacity="0.68"></circle><circle r="7.5" cx="786" cy="745" fill="hsl(203, 75%, 70%)" opacity="0.51"></circle><circle r="5.5" cx="328" cy="322" fill="hsl(70, 75%, 70%)" opacity="0.39"></circle><circle r="6.5" cx="206" cy="88" fill="hsl(95, 75%, 70%)" opacity="0.87"></circle><circle r="9.5" cx="455" cy="628" fill="hsl(112, 75%, 70%)" opacity="0.21"></circle><circle r="5.5" cx="589" cy="426" fill="hsl(71, 75%, 70%)" opacity="0.47"></circle><circle r="6.5" cx="632" cy="227" fill="hsl(64, 75%, 70%)" opacity="0.88"></circle><circle r="10" cx="33" cy="610" fill="hsl(159, 75%, 70%)" opacity="0.64"></circle><circle r="2.5" cx="580" cy="520" fill="hsl(76, 75%, 70%)" opacity="0.75"></circle><circle r="8" cx="655" cy="97" fill="hsl(104, 75%, 70%)" opacity="0.48"></circle><circle r="6" cx="185" cy="620" fill="hsl(94, 75%, 70%)" opacity="0.87"></circle><circle r="8.5" cx="401" cy="736" fill="hsl(95, 75%, 70%)" opacity="0.22"></circle><circle r="6.5" cx="307" cy="288" fill="hsl(69, 75%, 70%)" opacity="0.56"></circle><circle r="3" cx="596" cy="396" fill="hsl(71, 75%, 70%)" opacity="0.35"></circle><circle r="12" cx="120" cy="719" fill="hsl(119, 75%, 70%)" opacity="0.88"></circle><circle r="8.5" cx="87" cy="179" fill="hsl(132, 75%, 70%)" opacity="0.90"></circle><circle r="5" cx="270" cy="442" fill="hsl(72, 75%, 70%)" opacity="0.60"></circle><circle r="5.5" cx="396" cy="145" fill="hsl(140, 75%, 70%)" opacity="0.75"></circle><circle r="9.5" cx="405" cy="516" fill="hsl(95, 75%, 70%)" opacity="0.75"></circle><circle r="7" cx="73" cy="550" fill="hsl(142, 75%, 70%)" opacity="0.97"></circle><circle r="6.5" cx="262" cy="782" fill="hsl(74, 75%, 70%)" opacity="0.44"></circle><circle r="10" cx="720" cy="81" fill="hsl(141, 75%, 70%)" opacity="0.92"></circle><circle r="9" cx="488" cy="230" fill="hsl(113, 75%, 70%)" opacity="0.64"></circle><circle r="11.5" cx="509" cy="77" fill="hsl(209, 75%, 70%)" opacity="0.84"></circle><circle r="8" cx="256" cy="545" fill="hsl(74, 75%, 70%)" opacity="0.76"></circle><circle r="9" cx="189" cy="453" fill="hsl(90, 75%, 70%)" opacity="0.35"></circle><circle r="8.5" cx="308" cy="535" fill="hsl(69, 75%, 70%)" opacity="0.69"></circle><circle r="5" cx="385" cy="102" fill="hsl(198, 75%, 70%)" opacity="0.62"></circle><circle r="6.5" cx="285" cy="190" fill="hsl(70, 75%, 70%)" opacity="0.16"></circle><circle r="11.5" cx="557" cy="114" fill="hsl(135, 75%, 70%)" opacity="0.83"></circle><circle r="3.5" cx="337" cy="242" fill="hsl(70, 75%, 70%)" opacity="0.40"></circle><circle r="5" cx="374" cy="285" fill="hsl(79, 75%, 70%)" opacity="0.97"></circle><circle r="15" cx="29" cy="401" fill="hsl(159, 75%, 70%)" opacity="0.50"></circle><circle r="6" cx="412" cy="380" fill="hsl(95, 75%, 70%)" opacity="0.12"></circle><circle r="9" cx="465" cy="392" fill="hsl(114, 75%, 70%)" opacity="0.57"></circle><circle r="6.5" cx="76" cy="519" fill="hsl(136, 75%, 70%)" opacity="0.18"></circle><circle r="6.5" cx="487" cy="711" fill="hsl(114, 75%, 70%)" opacity="0.68"></circle><circle r="9" cx="450" cy="264" fill="hsl(112, 75%, 70%)" opacity="0.10"></circle><circle r="10" cx="691" cy="22" fill="hsl(148, 75%, 70%)" opacity="0.35"></circle><circle r="6.5" cx="569" cy="288" fill="hsl(82, 75%, 70%)" opacity="0.84"></circle><circle r="3.5" cx="540" cy="656" fill="hsl(95, 75%, 70%)" opacity="0.98"></circle><circle r="7" cx="217" cy="47" fill="hsl(135, 75%, 70%)" opacity="0.49"></circle><circle r="8" cx="433" cy="157" fill="hsl(138, 75%, 70%)" opacity="0.76"></circle><circle r="12.5" cx="704" cy="683" fill="hsl(104, 75%, 70%)" opacity="0.19"></circle><circle r="5.5" cx="577" cy="334" fill="hsl(76, 75%, 70%)" opacity="0.96"></circle><circle r="6" cx="173" cy="526" fill="hsl(98, 75%, 70%)" opacity="0.19"></circle><circle r="9" cx="249" cy="295" fill="hsl(77, 75%, 70%)" opacity="0.44"></circle><circle r="7" cx="787" cy="531" fill="hsl(203, 75%, 70%)" opacity="0.29"></circle><circle r="7.5" cx="175" cy="702" fill="hsl(98, 75%, 70%)" opacity="0.79"></circle><circle r="9" cx="423" cy="44" fill="hsl(294, 75%, 70%)" opacity="0.41"></circle><circle r="9" cx="422" cy="696" fill="hsl(100, 75%, 70%)" opacity="0.55"></circle><circle r="9.5" cx="678" cy="140" fill="hsl(93, 75%, 70%)" opacity="0.95"></circle><circle r="7.5" cx="638" cy="541" fill="hsl(65, 75%, 70%)" opacity="0.75"></circle><circle r="9" cx="517" cy="424" fill="hsl(106, 75%, 70%)" opacity="0.71"></circle><circle r="6" cx="134" cy="124" fill="hsl(87, 75%, 70%)" opacity="0.92"></circle><circle r="7" cx="727" cy="375" fill="hsl(134, 75%, 70%)" opacity="0.64"></circle><circle r="6" cx="676" cy="396" fill="hsl(82, 75%, 70%)" opacity="0.71"></circle><circle r="9" cx="15" cy="715" fill="hsl(163, 75%, 70%)" opacity="0.59"></circle><circle r="7.5" cx="700" cy="751" fill="hsl(92, 75%, 70%)" opacity="0.19"></circle><circle r="6" cx="486" cy="278" fill="hsl(114, 75%, 70%)" opacity="0.44"></circle><circle r="5" cx="587" cy="639" fill="hsl(76, 75%, 70%)" opacity="0.71"></circle><circle r="7" cx="597" cy="152" fill="hsl(85, 75%, 70%)" opacity="0.56"></circle><circle r="11" cx="765" cy="672" fill="hsl(185, 75%, 70%)" opacity="0.76"></circle><circle r="7" cx="419" cy="617" fill="hsl(100, 75%, 70%)" opacity="0.63"></circle><circle r="10" cx="90" cy="303" fill="hsl(130, 75%, 70%)" opacity="0.49"></circle><circle r="6" cx="372" cy="783" fill="hsl(79, 75%, 70%)" opacity="0.40"></circle><circle r="7" cx="122" cy="213" fill="hsl(119, 75%, 70%)" opacity="0.83"></circle><circle r="9" cx="777" cy="341" fill="hsl(203, 75%, 70%)" opacity="0.77"></circle><circle r="6.5" cx="381" cy="431" fill="hsl(84, 75%, 70%)" opacity="0.84"></circle><circle r="7.5" cx="363" cy="628" fill="hsl(79, 75%, 70%)" opacity="0.76"></circle><circle r="7.5" cx="781" cy="269" fill="hsl(203, 75%, 70%)" opacity="0.99"></circle><circle r="6.5" cx="600" cy="722" fill="hsl(71, 75%, 70%)" opacity="0.89"></circle><circle r="7.5" cx="641" cy="779" fill="hsl(65, 75%, 70%)" opacity="0.85"></circle><circle r="5.5" cx="645" cy="711" fill="hsl(65, 75%, 70%)" opacity="0.47"></circle><circle r="6" cx="10" cy="69" fill="hsl(180, 75%, 70%)" opacity="0.28"></circle><circle r="10.5" cx="683" cy="587" fill="hsl(82, 75%, 70%)" opacity="0.93"></circle><circle r="6.5" cx="507" cy="555" fill="hsl(110, 75%, 70%)" opacity="0.91"></circle><circle r="8.5" cx="47" cy="259" fill="hsl(154, 75%, 70%)" opacity="0.46"></circle><circle r="9.5" cx="83" cy="446" fill="hsl(136, 75%, 70%)" opacity="0.98"></circle><circle r="5.5" cx="306" cy="248" fill="hsl(69, 75%, 70%)" opacity="0.80"></circle><circle r="6" cx="704" cy="528" fill="hsl(104, 75%, 70%)" opacity="0.38"></circle><circle r="8.5" cx="784" cy="447" fill="hsl(203, 75%, 70%)" opacity="0.59"></circle><circle r="4.5" cx="367" cy="559" fill="hsl(79, 75%, 70%)" opacity="0.40"></circle><circle r="12.5" cx="105" cy="602" fill="hsl(124, 75%, 70%)" opacity="0.28"></circle><circle r="7.5" cx="569" cy="216" fill="hsl(82, 75%, 70%)" opacity="0.91"></circle><circle r="8" cx="214" cy="779" fill="hsl(83, 75%, 70%)" opacity="0.42"></circle><circle r="10.5" cx="318" cy="48" fill="hsl(272, 75%, 70%)" opacity="0.74"></circle><circle r="8" cx="152" cy="480" fill="hsl(103, 75%, 70%)" opacity="0.93"></circle><circle r="11.5" cx="499" cy="604" fill="hsl(113, 75%, 70%)" opacity="0.90"></circle><circle r="6" cx="365" cy="591" fill="hsl(79, 75%, 70%)" opacity="0.18"></circle><circle r="11" cx="434" cy="77" fill="hsl(247, 75%, 70%)" opacity="0.13"></circle><circle r="8" cx="394" cy="241" fill="hsl(89, 75%, 70%)" opacity="0.50"></circle><circle r="6.5" cx="221" cy="14" fill="hsl(151, 75%, 70%)" opacity="0.84"></circle><circle r="5" cx="590" cy="11" fill="hsl(144, 75%, 70%)" opacity="0.72"></circle><circle r="5" cx="553" cy="539" fill="hsl(89, 75%, 70%)" opacity="0.18"></circle><circle r="8" cx="393" cy="662" fill="hsl(89, 75%, 70%)" opacity="0.39"></circle><circle r="10.5" cx="653" cy="644" fill="hsl(68, 75%, 70%)" opacity="0.13"></circle><circle r="11" cx="745" cy="22" fill="hsl(186, 75%, 70%)" opacity="0.36"></circle><circle r="6.5" cx="781" cy="392" fill="hsl(203, 75%, 70%)" opacity="0.41"></circle><circle r="6.5" cx="213" cy="722" fill="hsl(83, 75%, 70%)" opacity="0.29"></circle><circle r="7.5" cx="430" cy="298" fill="hsl(105, 75%, 70%)" opacity="0.59"></circle><circle r="5" cx="362" cy="7" fill="hsl(333, 75%, 70%)" opacity="0.95"></circle><circle r="8" cx="707" cy="288" fill="hsl(104, 75%, 70%)" opacity="0.55"></circle><circle r="6" cx="185" cy="590" fill="hsl(94, 75%, 70%)" opacity="0.92"></circle><circle r="3.5" cx="645" cy="372" fill="hsl(65, 75%, 70%)" opacity="0.40"></circle><circle r="7.5" cx="330" cy="409" fill="hsl(70, 75%, 70%)" opacity="0.82"></circle><circle r="7.5" cx="580" cy="757" fill="hsl(76, 75%, 70%)" opacity="0.76"></circle><circle r="5" cx="249" cy="699" fill="hsl(77, 75%, 70%)" opacity="0.72"></circle><circle r="6" cx="625" cy="327" fill="hsl(65, 75%, 70%)" opacity="0.45"></circle><circle r="11.5" cx="149" cy="417" fill="hsl(108, 75%, 70%)" opacity="0.44"></circle><circle r="6" cx="487" cy="756" fill="hsl(114, 75%, 70%)" opacity="0.46"></circle><circle r="9.5" cx="74" cy="708" fill="hsl(142, 75%, 70%)" opacity="0.41"></circle><circle r="8" cx="312" cy="643" fill="hsl(69, 75%, 70%)" opacity="0.13"></circle><circle r="6.5" cx="545" cy="506" fill="hsl(95, 75%, 70%)" opacity="0.36"></circle><circle r="5.5" cx="390" cy="185" fill="hsl(97, 75%, 70%)" opacity="0.98"></circle><circle r="9.5" cx="350" cy="45" fill="hsl(290, 75%, 70%)" opacity="0.56"></circle><circle r="8" cx="216" cy="406" fill="hsl(83, 75%, 70%)" opacity="0.91"></circle><circle r="7.5" cx="287" cy="12" fill="hsl(267, 75%, 70%)" opacity="0.86"></circle><circle r="9" cx="65" cy="217" fill="hsl(142, 75%, 70%)" opacity="0.96"></circle><circle r="6.5" cx="562" cy="604" fill="hsl(89, 75%, 70%)" opacity="0.92"></circle><circle r="4.5" cx="600" cy="232" fill="hsl(71, 75%, 70%)" opacity="0.43"></circle><circle r="6.5" cx="677" cy="217" fill="hsl(82, 75%, 70%)" opacity="0.55"></circle><circle r="8" cx="233" cy="620" fill="hsl(80, 75%, 70%)" opacity="0.51"></circle><circle r="5.5" cx="68" cy="32" fill="hsl(101, 75%, 70%)" opacity="0.68"></circle><circle r="8.5" cx="725" cy="780" fill="hsl(118, 75%, 70%)" opacity="0.56"></circle><circle r="8.5" cx="124" cy="359" fill="hsl(119, 75%, 70%)" opacity="0.91"></circle><circle r="6.5" cx="788" cy="637" fill="hsl(219, 75%, 70%)" opacity="0.28"></circle><circle r="6" cx="615" cy="265" fill="hsl(65, 75%, 70%)" opacity="0.61"></circle><circle r="7.5" cx="562" cy="696" fill="hsl(89, 75%, 70%)" opacity="0.88"></circle><circle r="5" cx="791" cy="371" fill="hsl(219, 75%, 70%)" opacity="0.93"></circle><circle r="7.5" cx="512" cy="490" fill="hsl(110, 75%, 70%)" opacity="0.81"></circle><circle r="6" cx="235" cy="434" fill="hsl(80, 75%, 70%)" opacity="0.48"></circle><circle r="8.5" cx="130" cy="171" fill="hsl(103, 75%, 70%)" opacity="0.31"></circle><circle r="6" cx="617" cy="450" fill="hsl(65, 75%, 70%)" opacity="0.84"></circle><circle r="9.5" cx="135" cy="292" fill="hsl(113, 75%, 70%)" opacity="0.89"></circle><circle r="9.5" cx="283" cy="374" fill="hsl(70, 75%, 70%)" opacity="0.95"></circle><circle r="6" cx="634" cy="15" fill="hsl(131, 75%, 70%)" opacity="0.85"></circle><circle r="8" cx="316" cy="587" fill="hsl(69, 75%, 70%)" opacity="0.63"></circle><circle r="8" cx="761" cy="482" fill="hsl(167, 75%, 70%)" opacity="0.29"></circle><circle r="7.5" cx="120" cy="489" fill="hsl(119, 75%, 70%)" opacity="0.15"></circle><circle r="4.5" cx="575" cy="391" fill="hsl(82, 75%, 70%)" opacity="0.80"></circle><circle r="6.5" cx="640" cy="492" fill="hsl(65, 75%, 70%)" opacity="0.78"></circle><circle r="9" cx="253" cy="24" fill="hsl(215, 75%, 70%)" opacity="0.69"></circle><circle r="6" cx="524" cy="771" fill="hsl(106, 75%, 70%)" opacity="0.54"></circle><circle r="6" cx="151" cy="73" fill="hsl(75, 75%, 70%)" opacity="0.64"></circle><circle r="8.5" cx="236" cy="356" fill="hsl(80, 75%, 70%)" opacity="0.20"></circle><circle r="6.5" cx="10" cy="564" fill="hsl(167, 75%, 70%)" opacity="0.85"></circle><circle r="8.5" cx="53" cy="163" fill="hsl(143, 75%, 70%)" opacity="0.38"></circle><circle r="11.5" cx="778" cy="165" fill="hsl(202, 75%, 70%)" opacity="0.23"></circle><circle r="4" cx="246" cy="503" fill="hsl(77, 75%, 70%)" opacity="0.23"></circle><circle r="5.5" cx="122" cy="41" fill="hsl(71, 75%, 70%)" opacity="0.46"></circle><circle r="6.5" cx="250" cy="195" fill="hsl(74, 75%, 70%)" opacity="0.62"></circle><circle r="6.5" cx="264" cy="733" fill="hsl(72, 75%, 70%)" opacity="0.22"></circle><circle r="9" cx="27" cy="35" fill="hsl(146, 75%, 70%)" opacity="0.46"></circle><circle r="4" cx="193" cy="37" fill="hsl(108, 75%, 70%)" opacity="0.57"></circle><circle r="8.5" cx="784" cy="308" fill="hsl(203, 75%, 70%)" opacity="0.70"></circle><circle r="8" cx="157" cy="338" fill="hsl(103, 75%, 70%)" opacity="0.79"></circle><circle r="8" cx="305" cy="442" fill="hsl(69, 75%, 70%)" opacity="0.10"></circle><circle r="5.5" cx="520" cy="669" fill="hsl(106, 75%, 70%)" opacity="0.18"></circle><circle r="6" cx="567" cy="255" fill="hsl(82, 75%, 70%)" opacity="0.65"></circle><circle r="10.5" cx="18" cy="142" fill="hsl(167, 75%, 70%)" opacity="0.26"></circle><circle r="5" cx="791" cy="483" fill="hsl(219, 75%, 70%)" opacity="0.89"></circle><circle r="3" cx="575" cy="540" fill="hsl(76, 75%, 70%)" opacity="0.81"></circle><circle r="9" cx="179" cy="753" fill="hsl(94, 75%, 70%)" opacity="0.56"></circle><circle r="10" cx="348" cy="481" fill="hsl(72, 75%, 70%)" opacity="0.98"></circle><circle r="9" cx="363" cy="77" fill="hsl(239, 75%, 70%)" opacity="0.29"></circle><circle r="5.5" cx="464" cy="313" fill="hsl(114, 75%, 70%)" opacity="0.50"></circle><circle r="9.5" cx="336" cy="14" fill="hsl(313, 75%, 70%)" opacity="0.84"></circle><circle r="8" cx="202" cy="656" fill="hsl(87, 75%, 70%)" opacity="0.57"></circle><circle r="10.5" cx="211" cy="150" fill="hsl(82, 75%, 70%)" opacity="0.94"></circle><circle r="6" cx="276" cy="253" fill="hsl(70, 75%, 70%)" opacity="0.39"></circle><circle r="6.5" cx="354" cy="140" fill="hsl(123, 75%, 70%)" opacity="0.14"></circle><circle r="4.5" cx="175" cy="11" fill="hsl(102, 75%, 70%)" opacity="0.46"></circle><circle r="7" cx="557" cy="434" fill="hsl(89, 75%, 70%)" opacity="0.26"></circle><circle r="10.5" cx="488" cy="175" fill="hsl(129, 75%, 70%)" opacity="0.65"></circle><circle r="9.5" cx="739" cy="448" fill="hsl(150, 75%, 70%)" opacity="0.44"></circle></svg>